PathFileType	4	(x/y/z)	A01_SLOW_T0029.trc
DataRate	CameraRate	NumFrames	NumMarkers	Units	OrigDataRate	OrigDataStartFrame	OrigNumFrames
240	240	5	48	mm	240	90	357
Frame#	Time	TOP_HEAD			R_AC			L_AC			R_ASIS			L_ASIS			R_PSIS			L_PSIS			SACRAL			L_IC			R_IC			L_GT			R_GT			R_LAT_KNEE			R_MED_KNEE			L_MED_KNEE			L_LAT_KNEE			R_TOE			L_TOE			R_1ST_MET			L_1ST_MET			L_5TH_MET			R_5TH_MET			R_LAT_ANK			R_MED_ANK			L_MED_ANK			L_LAT_ANK			L_HEEL_SUP			R_HEEL_SUP			L_HEEL_LAT			R_HEEL_LAT			L_HEEL_MED			R_HEEL_MED			R_LL_PROX_POST			R_LL_PROX_ANT			R_LL_DIST_ANT			R_LL_DIST_POST			R_THIGH_PROX_POST			R_THIGH_PROX_ANT			R_THIGH_DIST_ANT			R_THIGH_DIST_POST			L_PROS_PROX_ANT			L_PROS_PROX_POST			L_PROS_DIST_POST			L_PROS_DIST_ANT			L_THIGH_PROX_ANT			L_THIGH_PROX_POST			L_THIGH_DIST_POST			L_THIGH_DIST_ANT			
		X1	Y1	Z1	X2	Y2	Z2	X3	Y3	Z3	X4	Y4	Z4	X5	Y5	Z5	X6	Y6	Z6	X7	Y7	Z7	X8	Y8	Z8	X9	Y9	Z9	X10	Y10	Z10	X11	Y11	Z11	X12	Y12	Z12	X13	Y13	Z13	X14	Y14	Z14	X15	Y15	Z15	X16	Y16	Z16	X17	Y17	Z17	X18	Y18	Z18	X19	Y19	Z19	X20	Y20	Z20	X21	Y21	Z21	X22	Y22	Z22	X23	Y23	Z23	X24	Y24	Z24	X25	Y25	Z25	X26	Y26	Z26	X27	Y27	Z27	X28	Y28	Z28	X29	Y29	Z29	X30	Y30	Z30	X31	Y31	Z31	X32	Y32	Z32	X33	Y33	Z33	X34	Y34	Z34	X35	Y35	Z35	X36	Y36	Z36	X37	Y37	Z37	X38	Y38	Z38	X39	Y39	Z39	X40	Y40	Z40	X41	Y41	Z41	X42	Y42	Z42	X43	Y43	Z43	X44	Y44	Z44	X45	Y45	Z45	X46	Y46	Z46	X47	Y47	Z47	X48	Y48	Z48	

90	0.37188	-282.42	1753.8	229.31	-507.07	1565.7	497.54	-542.82	1525.9	40.226	-515.46	1089.9	510.54	-486.63	1029.6	160.01	-722.49	1075.7	373.01	-708.05	1077.3	241.19	-730.59	1046	306.09	-516.9	1131.3	110.64	-538.47	1197.6	504.94	-543.71	944.88	120.84	-573.99	977.23	549.95	-552.63	575.39	532.98	NaN	NaN	NaN	-467.42	563.91	355.41	-486.69	565.04	198.59	-817.48	64.772	412.49	-333.09	84.092	277.88	-871.9	133.65	371.67	-412.98	57.54	334.04	-441.46	47.063	204.64	-907.37	127.18	501.32	-904.42	268.23	503	-887.83	281.6	403.37	-537.63	128.37	312.59	-571.27	118.32	245.17	-656.76	74.217	287.59	-977.19	342.31	449.22	-644.63	45.761	256.27	-998.42	319.12	478.72	-635.24	44.741	320.64	-993.83	327.15	418.89	-730.58	517.96	534.56	-691.1	460.85	557.33	-742.01	407.86	538.51	-777.19	449.82	524.61	-601.53	830.68	540.06	-536.01	856.66	545.24	-521.83	765.19	547.31	-585.97	741.74	538.66	-445.96	480.35	214.81	-501.04	483.3	203.82	-511.41	422.11	214.63	-457.94	425.95	223.83	-462.05	810.35	163.45	-532.3	806.96	146.3	-513.44	734.58	163.15	-449.66	738.72	178.32
91	0.37605	-278.57	1754.4	229.6	-503.76	1566.1	497.59	-538.33	1526.4	40.161	-511.14	1090.5	510.21	-482.53	1029.9	159.76	-718.23	1075.9	372.84	-703.86	1077.6	240.99	-726.33	1046.2	305.92	-513.03	1131.5	110.43	-534.61	1198	504.89	-539.75	945.17	120.61	-569.22	977.68	549.75	-544.57	575.99	533.03	NaN	NaN	NaN	-465.43	563.82	355.28	-484.67	564.99	198.48	-804.09	65.774	414.71	-333	83.984	277.86	-859.78	133.15	373.2	-412.92	57.525	334.03	-441.44	47.058	204.67	-895.43	127.1	502.81	-895.14	267.93	503.27	-878.6	280.94	403.64	-537.3	128.56	312.57	-570.96	118.61	245.16	-656.56	74.568	287.64	-969.28	340.34	448.81	-644.57	46.072	256.31	-990.16	316.98	478.41	-635.18	45.079	320.65	-985.5	324.64	418.55	-722.32	517.98	534.83	-682.61	461.03	557.53	-733.31	407.84	538.76	-768.67	449.65	524.89	-595.47	830.87	540.05	-530.4	857.4	545.17	-515.18	765.99	547.29	-579.13	742.03	538.75	-444.27	480.14	214.7	-499.33	483.32	203.71	-509.96	422.17	214.55	-456.46	425.8	223.73	-458.58	810.29	163.25	-528.9	807.23	146.14	-510.39	734.76	163.01	-446.57	738.61	178.19
92	0.38023	-274.72	1755	229.91	-500.45	1566.6	497.65	-533.83	1526.9	40.105	-506.84	1091.1	509.89	-478.45	1030.2	159.52	-714	1076	372.67	-699.69	1077.9	240.8	-722.1	1046.4	305.76	-509.2	1131.6	110.23	-530.77	1198.5	504.83	-535.81	945.47	120.38	-564.5	978.16	549.55	-536.58	576.61	533.07	NaN	NaN	NaN	-463.44	563.74	355.15	-482.67	564.95	198.36	-790.52	66.642	416.98	-332.9	83.872	277.83	-847.47	132.46	374.74	-412.85	57.509	334.02	-441.41	47.052	204.7	-883.32	126.89	504.31	-885.7	267.43	503.51	-869.19	280.05	403.86	-536.96	128.75	312.54	-570.65	118.92	245.15	-656.35	74.938	287.68	-961.19	338.12	448.34	-644.5	46.401	256.36	-981.72	314.61	478.05	-635.12	45.435	320.67	-976.98	321.86	418.17	-714.08	517.9	535.01	-674.11	461.16	557.69	-724.57	407.72	538.96	-760.12	449.36	525.1	-589.45	831.08	540.02	-524.89	858.18	545.12	-508.59	766.82	547.27	-572.36	742.35	538.82	-442.59	479.94	214.58	-497.64	483.34	203.61	-508.51	422.23	214.47	-454.99	425.66	223.63	-455.14	810.23	163.05	-525.54	807.49	145.98	-507.37	734.93	162.87	-443.51	738.5	178.07
93	0.38441	-270.86	1755.5	230.25	-497.14	1567	497.71	-529.3	1527.4	40.056	-502.57	1091.7	509.57	-474.41	1030.4	159.28	-709.79	1076.2	372.51	-695.55	1078.3	240.61	-717.9	1046.7	305.6	-505.4	1131.8	110.04	-526.96	1198.9	504.78	-531.9	945.76	120.16	-559.83	978.64	549.36	-528.65	577.27	533.09	NaN	NaN	NaN	-461.46	563.66	355.02	-480.67	564.92	198.25	-776.81	67.38	419.29	-332.8	83.756	277.8	-834.99	131.59	376.31	-412.78	57.494	334.01	-441.38	47.046	204.72	-871.03	126.56	505.83	-876.1	266.73	503.71	-859.64	278.94	404.04	-536.63	128.96	312.52	-570.33	119.23	245.14	-656.14	75.327	287.72	-952.92	335.64	447.81	-644.44	46.748	256.41	-973.09	312	477.65	-635.06	45.808	320.68	-968.27	318.82	417.74	-705.86	517.72	535.1	-665.6	461.23	557.82	-715.77	407.51	539.13	-751.54	448.94	525.24	-583.47	831.32	539.99	-519.47	858.98	545.07	-502.07	767.68	547.26	-565.65	742.7	538.88	-440.93	479.75	214.47	-495.96	483.37	203.5	-507.08	422.31	214.38	-453.53	425.52	223.53	-451.75	810.17	162.86	-522.2	807.75	145.81	-504.37	735.11	162.74	-440.49	738.39	177.94
94	0.38859	-267	1756.1	230.61	-493.83	1567.5	497.78	-524.76	1527.9	40.015	-498.32	1092.3	509.26	-470.39	1030.7	159.05	-705.6	1076.4	372.36	-691.44	1078.6	240.44	-713.72	1046.9	305.45	-501.6	1132	109.85	-523.16	1199.4	504.73	-528.01	946.04	119.94	-555.21	979.14	549.18	-520.77	577.94	533.09	NaN	NaN	NaN	-459.49	563.59	354.9	-478.68	564.9	198.13	-762.94	67.993	421.64	-332.69	83.636	277.77	-822.34	130.56	377.89	-412.71	57.48	333.99	-441.34	47.04	204.75	-858.58	126.11	507.36	-866.35	265.85	503.87	-849.92	277.62	404.19	-536.29	129.17	312.49	-570.02	119.55	245.13	-655.93	75.734	287.76	-944.47	332.91	447.24	-644.37	47.112	256.45	-964.27	309.16	477.21	-635.01	46.197	320.68	-959.36	315.52	417.26	-697.66	517.46	535.12	-657.08	461.24	557.9	-706.92	407.2	539.26	-742.94	448.4	525.32	-577.53	831.57	539.96	-514.1	859.8	545.03	-495.62	768.56	547.24	-559	743.08	538.93	-439.28	479.57	214.36	-494.28	483.4	203.4	-505.65	422.39	214.3	-452.08	425.39	223.44	-448.4	810.11	162.68	-518.88	808.02	145.64	-501.41	735.29	162.61	-437.5	738.29	177.82
